<?xml version="1.0" standalone="no"?>
<!DOCTYPE svg PUBLIC "-//W3C//DTD SVG 20010904//EN"
 "http://www.w3.org/TR/2001/REC-SVG-20010904/DTD/svg10.dtd">
<svg version="1.0" xmlns="http://www.w3.org/2000/svg"
 width="1200.000000pt" height="800.000000pt" viewBox="0 0 1200.000000 800.000000"
 preserveAspectRatio="xMidYMid meet">
<metadata>
Created by potrace 1.16, written by Peter Selinger 2001-2019
</metadata>
<g transform="translate(0.000000,800.000000) scale(0.100000,-0.100000)"
fill="#000000" stroke="none">
<path d="M0 7680 l0 -320 1518 -1012 1517 -1013 345 -3 c190 -1 406 -1 480 0
l135 3 -1997 1333 -1998 1332 0 -320z"/>
<path d="M3050 6930 c883 -588 1608 -1070 1613 -1070 4 0 7 482 7 1070 l0
1070 -1612 0 -1613 0 1605 -1070z"/>
<path d="M5200 6400 l0 -1600 -2600 0 -2600 0 0 -800 0 -800 2600 0 2600 0 0
-1600 0 -1600 800 0 800 0 0 1600 0 1600 2600 0 2600 0 0 800 0 800 -2600 0
-2600 0 0 1600 0 1600 -800 0 -800 0 0 -1600z"/>
<path d="M7330 6930 c0 -588 3 -1070 8 -1070 4 0 729 482 1612 1070 l1605
1070 -1612 0 -1613 0 0 -1070z"/>
<path d="M9200 6774 c-1009 -673 -1843 -1231 -1853 -1239 -15 -13 -17 -29 -15
-108 l3 -92 335 0 335 0 1985 1324 c1092 728 1989 1327 1995 1332 5 5 -193 9
-470 8 l-480 0 -1835 -1225z"/>
<path d="M0 6180 l0 -850 1277 0 c737 0 1273 4 1268 9 -15 13 -2534 1691
-2540 1691 -3 0 -5 -382 -5 -850z"/>
<path d="M10722 6186 c-694 -463 -1265 -846 -1269 -849 -3 -4 568 -7 1270 -7
l1277 0 0 850 c0 468 -3 850 -7 849 -5 0 -576 -380 -1271 -843z"/>
<path d="M0 1820 c0 -467 2 -850 5 -850 6 0 2525 1678 2539 1691 6 5 -530 9
-1267 9 l-1277 0 0 -850z"/>
<path d="M3990 2657 c-14 -7 -915 -607 -2004 -1333 l-1979 -1319 477 -3 476
-2 1847 1231 c1017 678 1851 1237 1856 1243 4 6 6 52 5 101 l-3 90 -325 3
c-254 1 -330 -1 -350 -11z"/>
<path d="M8015 2661 c6 -5 904 -605 1998 -1333 l1987 -1325 0 319 0 318 -1517
1012 -1518 1013 -480 3 c-288 1 -476 -1 -470 -7z"/>
<path d="M9456 2661 c14 -13 2533 -1691 2539 -1691 3 0 5 383 5 850 l0 850
-1277 0 c-737 0 -1273 -4 -1267 -9z"/>
<path d="M3050 1070 l-1605 -1070 1613 0 1612 0 0 1070 c0 589 -3 1070 -7
1070 -5 0 -730 -482 -1613 -1070z"/>
<path d="M7330 1070 l0 -1070 1613 0 1612 0 -1605 1070 c-883 588 -1608 1070
-1612 1070 -5 0 -8 -481 -8 -1070z"/>
</g>
</svg>
