<?xml version="1.0" encoding="UTF-8" standalone="no"?>
<svg
   xmlns:dc="http://purl.org/dc/elements/1.1/"
   xmlns:cc="http://creativecommons.org/ns#"
   xmlns:rdf="http://www.w3.org/1999/02/22-rdf-syntax-ns#"
   xmlns:svg="http://www.w3.org/2000/svg"
   xmlns="http://www.w3.org/2000/svg"
   xmlns:xlink="http://www.w3.org/1999/xlink"
   id="svg33"
   version="1.1"
   viewBox="0 0 10080 5040"
   height="640"
   width="1280">
  <metadata
     id="metadata37">
    <rdf:RDF>
      <cc:Work
         rdf:about="">
        <dc:format>image/svg+xml</dc:format>
        <dc:type
           rdf:resource="http://purl.org/dc/dcmitype/StillImage" />
      </cc:Work>
    </rdf:RDF>
  </metadata>
  <defs
     id="defs11">
    <clipPath
       id="c1">
      <path
         id="path2"
         d="M0,0H6V3H0z" />
    </clipPath>
    <clipPath
       id="c2">
      <path
         id="path5"
         d="M0,0V1.5H6V3H6zM6,0H3V3H0V3z" />
    </clipPath>
    <path
       d="M0,-360 69.421398,-144.155019 281.459334,-224.456329 155.988466,-35.603349 350.974048,80.107536 125.093037,99.758368 156.198146,324.348792 0,160 -156.198146,324.348792 -125.093037,99.758368 -350.974048,80.107536 -155.988466,-35.603349 -281.459334,-224.456329 -69.421398,-144.155019z"
       id="Star7" />
    <path
       d="M0,-210 54.859957,-75.508253 199.721868,-64.893569 88.765275,28.841586 123.434903,169.893569 0,93.333333 -123.434903,169.893569 -88.765275,28.841586 -199.721868,-64.893569 -54.859957,-75.508253z"
       id="Star5" />
    <use
       transform="scale(2.1)"
       xlink:href="#Star7"
       id="Cstar" />
  </defs>
  <g
     id="g23"
     transform="scale(840)">
    <rect
       id="rect13"
       fill="#012169"
       height="6"
       width="12" />
    <path
       id="path15"
       clip-path="url(#c1)"
       stroke-width="0.6"
       stroke="#fff"
       d="M0,0 6,3M6,0 0,3" />
    <path
       id="path17"
       clip-path="url(#c2)"
       stroke-width="0.4"
       stroke="#e4002b"
       d="M0,0 6,3M6,0 0,3" />
    <path
       id="path19"
       stroke="#fff"
       d="M3,0V3M0,1.5H6" />
    <path
       id="path21"
       stroke-width="0.6"
       stroke="#e4002b"
       d="M3,0V3M0,1.5H6" />
  </g>
  <g
     id="g31"
     fill="#fff">
    <use
       y="3780"
       x="2520"
       xlink:href="#Cstar"
       id="Comwlth" />
    <use
       y="4200"
       x="7560"
       xlink:href="#Star7"
       id="αCrucis" />
    <use
       y="2205"
       x="6300"
       xlink:href="#Star7"
       id="βCrucis" />
    <use
       y="840"
       x="7560"
       xlink:href="#Star7"
       id="γCrucis" />
    <use
       y="1869"
       x="8680"
       xlink:href="#Star7"
       id="δCrucis" />
    <use
       y="2730"
       x="8064"
       xlink:href="#Star5"
       id="εCrucis" />
  </g>
</svg>
