<?xml version="1.0" standalone="no"?>
<!DOCTYPE svg PUBLIC "-//W3C//DTD SVG 20010904//EN"
 "http://www.w3.org/TR/2001/REC-SVG-20010904/DTD/svg10.dtd">
<svg version="1.0" xmlns="http://www.w3.org/2000/svg"
 width="1024.000000pt" height="512.000000pt" viewBox="0 0 1024.000000 512.000000"
 preserveAspectRatio="xMidYMid meet">
<metadata>
Created by potrace 1.16, written by Peter Selinger 2001-2019
</metadata>
<g transform="translate(0.000000,512.000000) scale(0.100000,-0.100000)"
fill="#000000" stroke="none">
<path d="M0 5025 l0 -95 660 -330 661 -330 185 2 184 3 -845 422 -845 423 0
-95z"/>
<path d="M581 5116 c2 -2 352 -178 777 -390 l772 -386 0 390 0 390 -777 0
c-427 0 -774 -2 -772 -4z"/>
<path d="M2308 4608 l-3 -513 -1152 -3 -1153 -2 0 -250 0 -250 1153 -2 1152
-3 3 -512 2 -513 -90 0 -90 0 0 390 0 390 -780 -390 -780 -390 -92 1 -93 0
845 424 845 424 -188 0 -187 1 -850 -425 -850 -425 0 -1280 0 -1280 5120 0
5120 0 0 2560 0 2560 -2560 0 -2560 0 0 -143 0 -142 -562 -282 -563 -282 563
0 562 -1 0 -90 0 -90 -1152 2 -1153 3 -3 513 -2 512 -250 0 -250 0 -2 -512z
m5421 -253 l43 -134 144 -3 145 -3 -116 -83 c-63 -46 -115 -84 -115 -85 0 -1
20 -64 44 -139 24 -76 39 -135 33 -131 -7 4 -60 42 -119 85 l-108 78 -92 -68
c-51 -38 -105 -76 -120 -86 l-26 -17 43 137 c24 76 42 141 40 144 -2 4 -54 42
-115 86 l-111 79 145 3 144 3 43 134 c23 74 45 135 49 135 4 0 26 -61 49 -135z
m-2609 -855 l0 -90 -562 -1 -563 0 563 -282 562 -282 0 -47 0 -48 -660 330
-660 330 -187 -1 -188 0 845 -424 845 -424 -283 0 -282 -1 -780 390 -780 390
0 -390 0 -390 -90 0 -90 0 0 508 c0 280 3 512 7 515 3 4 523 7 1155 7 l1148 0
0 -90z m3615 -50 l38 -119 131 -3 131 -3 -100 -74 c-55 -41 -102 -75 -104 -77
-2 -2 13 -56 33 -120 21 -64 36 -118 33 -120 -2 -2 -47 28 -99 66 -53 39 -100
70 -105 70 -4 0 -53 -34 -108 -74 -55 -41 -101 -73 -102 -72 -2 1 16 58 38
125 25 72 38 126 32 130 -5 3 -53 38 -107 76 l-97 70 132 5 132 5 40 118 c21
64 40 117 41 117 2 0 20 -54 41 -120z m-2190 -282 l44 -133 144 -5 145 -5
-110 -79 c-60 -44 -112 -84 -114 -90 -2 -6 16 -71 39 -143 24 -73 42 -133 40
-133 -2 0 -56 38 -120 85 -72 52 -120 81 -127 76 -51 -40 -220 -160 -222 -158
-2 1 16 64 40 139 l43 136 -114 84 -115 83 143 5 144 5 44 137 c25 76 46 136
49 134 2 -2 23 -64 47 -138z m1190 -1851 l50 -152 158 0 c86 0 157 -2 157 -5
0 -3 -56 -46 -125 -95 -68 -50 -125 -94 -125 -99 0 -4 20 -71 45 -148 25 -77
45 -144 45 -149 0 -5 -58 34 -130 87 l-129 95 -131 -95 c-71 -53 -130 -92
-130 -87 0 5 20 72 45 149 25 77 45 144 45 149 0 4 -56 49 -125 98 -69 49
-125 92 -125 95 0 3 71 5 157 5 l158 0 50 152 c28 84 52 152 55 152 3 0 28
-68 55 -152z"/>
<path d="M7650 4267 l-26 -82 -99 -3 -99 -3 70 -50 c38 -28 73 -54 77 -59 5
-4 -3 -45 -17 -90 -15 -46 -25 -84 -23 -86 2 -2 34 19 72 46 38 28 72 50 75
50 3 0 37 -22 75 -50 38 -27 70 -48 72 -46 2 2 -8 39 -22 82 -13 44 -25 82
-25 86 0 4 34 31 76 60 l76 53 -98 5 -98 5 -26 82 c-14 46 -27 83 -30 83 -3 0
-16 -37 -30 -83z"/>
<path d="M8669 3360 l-24 -75 -77 -5 -76 -5 59 -40 c32 -22 59 -45 59 -51 0
-6 -9 -37 -20 -69 -11 -32 -20 -62 -20 -67 0 -5 24 9 53 30 28 21 57 41 63 45
6 4 38 -13 70 -38 32 -24 60 -42 61 -41 2 2 -6 29 -17 61 -11 32 -20 65 -20
74 0 9 28 35 62 59 l62 42 -80 0 -80 0 -25 78 -26 77 -24 -75z"/>
<path d="M6467 3080 l-27 -89 -97 -3 -96 -3 77 -55 c42 -30 76 -54 76 -55 0 0
-11 -34 -24 -75 -13 -41 -27 -84 -32 -94 -5 -12 20 1 69 37 42 32 80 57 84 57
3 0 38 -23 76 -51 38 -27 71 -48 73 -46 2 2 -7 37 -21 77 -14 40 -25 79 -25
86 0 7 34 38 76 68 l77 56 -100 0 -100 0 -27 90 c-16 50 -29 90 -30 90 0 0
-13 -41 -29 -90z"/>
<path d="M7643 1223 l-30 -98 -111 -5 -111 -5 89 -64 88 -63 -34 -101 c-19
-55 -32 -102 -30 -104 2 -3 41 23 86 56 45 34 85 61 89 61 4 0 45 -27 91 -60
46 -33 85 -59 87 -57 1 2 -12 49 -31 104 l-34 101 90 64 90 63 -113 5 -112 5
-30 98 c-17 53 -33 97 -37 97 -4 0 -20 -44 -37 -97z"/>
<path d="M2990 4730 l0 -390 773 386 c424 212 774 388 776 390 2 2 -345 4
-772 4 l-777 0 0 -390z"/>
<path d="M3890 4695 l-845 -424 190 0 190 0 845 424 845 424 -190 0 -190 0
-845 -424z"/>
<path d="M0 4550 l0 -280 563 1 562 0 -555 279 c-305 153 -558 279 -562 279
-5 1 -8 -125 -8 -279z"/>
<path d="M0 3130 c0 -154 3 -280 8 -279 4 0 257 126 562 279 l555 279 -562 0
-563 1 0 -280z"/>
</g>
</svg>
