<?xml version="1.0" standalone="no"?>
<!DOCTYPE svg PUBLIC "-//W3C//DTD SVG 20010904//EN"
 "http://www.w3.org/TR/2001/REC-SVG-20010904/DTD/svg10.dtd">
<svg version="1.0" xmlns="http://www.w3.org/2000/svg"
 width="318.000000pt" height="159.000000pt" viewBox="0 0 318.000000 159.000000"
 preserveAspectRatio="xMidYMid meet">
<metadata>
Created by potrace 1.16, written by Peter Selinger 2001-2019
</metadata>
<g transform="translate(0.000000,159.000000) scale(0.100000,-0.100000)"
fill="#000000" stroke="none">
<path d="M0 1562 c0 -26 12 -34 208 -131 189 -94 211 -102 255 -99 l48 3 -256
127 c-255 128 -255 128 -255 100z"/>
<path d="M191 1586 c2 -2 109 -56 237 -120 l232 -116 0 120 0 120 -237 0
c-130 0 -234 -2 -232 -4z"/>
<path d="M720 1430 l0 -160 -360 0 -360 0 0 -75 0 -75 357 -2 358 -3 3 -162 2
-163 -30 0 -30 0 0 120 c0 66 -2 120 -5 120 -3 0 -114 -54 -246 -121 -167 -83
-249 -119 -268 -117 -20 3 35 34 237 136 l263 132 -55 0 c-52 0 -76 -10 -321
-132 l-265 -133 0 -397 0 -398 1590 0 1590 0 0 795 0 795 -795 0 -795 0 0 -45
0 -45 -167 -84 -168 -85 168 0 167 -1 0 -30 0 -30 -360 0 -360 0 0 160 0 160
-75 0 -75 0 0 -160z m1690 -107 c0 -7 19 -13 48 -15 l47 -3 -37 -23 -37 -23
15 -41 c18 -53 19 -52 -13 -30 -16 10 -33 22 -39 25 -6 3 -27 -5 -47 -19 -20
-14 -37 -23 -37 -21 0 3 6 23 14 45 l15 41 -37 23 -37 23 46 3 c45 3 47 4 59
45 l13 42 13 -30 c7 -16 13 -35 14 -42z m-820 -233 l0 -30 -172 -1 -173 0 173
-87 c125 -63 172 -92 172 -104 0 -15 -42 3 -210 87 -189 94 -215 105 -262 104
l-53 0 265 -134 265 -134 -88 0 -87 -1 -240 120 c-132 66 -242 120 -245 120
-3 0 -5 -54 -5 -120 l0 -120 -30 0 -30 0 0 158 c0 87 3 162 7 165 3 4 165 7
360 7 l353 0 0 -30z m446 -113 c9 -28 15 -32 54 -35 l43 -3 -33 -28 c-31 -26
-33 -29 -22 -61 18 -50 15 -53 -23 -24 l-36 27 -27 -20 c-51 -37 -52 -37 -37
8 8 23 15 43 15 45 0 2 -17 15 -37 29 l-38 25 47 0 c47 0 47 0 58 41 12 45 19
44 36 -4z m374 -589 c8 -25 14 -28 57 -28 52 -1 52 0 -11 -45 -17 -13 -17 -16
-3 -59 9 -25 13 -46 10 -46 -3 0 -21 11 -39 25 -18 14 -36 25 -39 25 -3 0 -21
-11 -39 -25 -18 -14 -36 -25 -39 -25 -3 0 0 19 8 41 19 54 20 50 -22 79 l-37
25 49 5 c47 5 49 6 63 50 16 48 16 47 42 -22z"/>
<path d="M930 1470 l0 -120 233 116 c127 64 234 118 236 120 2 2 -102 4 -232
4 l-237 0 0 -120z"/>
<path d="M1217 1459 l-258 -129 58 1 c54 0 75 9 313 129 l255 129 -55 0 c-50
0 -76 -11 -313 -130z"/>
<path d="M0 1415 l0 -85 167 0 c91 0 164 2 162 4 -2 2 -77 40 -166 85 l-163
81 0 -85z"/>
<path d="M0 975 c0 -47 3 -85 8 -84 4 0 81 38 172 84 l165 84 -172 0 -173 1 0
-85z"/>
</g>
</svg>
