<?xml version="1.0" standalone="no"?>
<!DOCTYPE svg PUBLIC "-//W3C//DTD SVG 20010904//EN"
 "http://www.w3.org/TR/2001/REC-SVG-20010904/DTD/svg10.dtd">
<svg version="1.0" xmlns="http://www.w3.org/2000/svg"
 width="1446.000000pt" height="816.000000pt" viewBox="0 0 1446.000000 816.000000"
 preserveAspectRatio="xMidYMid meet">
<metadata>
Created by potrace 1.16, written by Peter Selinger 2001-2019
</metadata>
<g transform="translate(0.000000,816.000000) scale(0.100000,-0.100000)"
fill="#000000" stroke="none">
<path d="M0 5945 l0 -2215 7230 0 7230 0 0 315 0 315 -4092 2 -4093 3 0 320 0
320 4093 3 4092 2 0 315 0 315 -4092 2 -4093 3 0 320 0 320 4093 3 4092 2 0
315 0 315 -4092 2 -4093 3 0 320 0 320 4093 3 4092 2 0 295 0 295 -7230 0
-7230 0 0 -2215z m4710 2008 c27 -100 30 -102 123 -105 46 -2 82 -7 82 -13 -1
-5 -29 -30 -63 -55 -33 -25 -61 -52 -62 -61 0 -9 9 -42 20 -74 35 -101 26
-107 -57 -40 -30 25 -62 45 -70 45 -8 0 -41 -21 -74 -47 -36 -28 -63 -43 -69
-37 -5 5 1 37 16 78 13 38 24 73 24 78 0 4 -28 29 -62 54 -35 25 -63 51 -63
58 0 7 28 12 80 14 83 3 105 14 105 53 0 27 39 111 49 105 4 -3 14 -27 21 -53z
m-4179 -25 l24 -73 83 -5 c45 -3 82 -8 82 -12 0 -5 0 -11 0 -15 0 -5 -27 -26
-60 -48 -33 -22 -60 -45 -60 -50 0 -6 11 -43 24 -83 32 -99 27 -102 -59 -37
-33 25 -65 45 -71 45 -5 0 -38 -21 -72 -46 -34 -25 -66 -43 -71 -40 -5 3 0 33
11 68 11 35 22 70 25 79 3 12 -13 31 -54 60 -95 71 -93 77 22 81 l80 3 18 60
c10 33 20 66 22 73 11 32 34 7 56 -60z m1047 -3 l22 -75 78 0 c113 0 118 -9
38 -66 -74 -53 -77 -61 -46 -142 21 -55 25 -82 12 -82 -4 0 -36 20 -70 45 -34
25 -67 45 -73 45 -6 0 -38 -21 -71 -46 -78 -60 -90 -50 -54 43 14 38 26 72 26
76 0 4 -28 28 -62 53 -35 25 -63 51 -63 58 0 7 31 13 85 16 l84 5 18 60 c26
84 26 85 41 85 8 0 22 -30 35 -75z m1048 3 l21 -73 83 -5 c49 -3 85 -10 87
-16 2 -7 -26 -33 -62 -58 -36 -26 -65 -49 -65 -51 0 -2 12 -36 26 -76 35 -96
23 -105 -54 -45 -33 25 -66 46 -74 46 -7 0 -40 -21 -72 -45 -33 -25 -63 -45
-68 -45 -13 0 -9 26 12 82 30 81 28 90 -40 137 -84 59 -80 71 25 71 l84 0 17
58 c33 116 51 121 80 20z m1045 0 l24 -73 85 -5 c54 -3 85 -9 85 -16 0 -7 -28
-33 -62 -58 -35 -25 -63 -50 -63 -56 0 -5 11 -39 25 -76 37 -98 27 -105 -60
-39 -33 25 -65 45 -70 45 -6 0 -37 -20 -70 -45 -33 -25 -63 -45 -67 -45 -13 0
-9 31 14 98 l22 65 -31 26 c-16 14 -47 39 -67 55 -21 15 -34 32 -29 37 4 4 44
9 88 11 l80 3 23 73 c13 40 29 72 37 72 7 0 23 -32 36 -72z m2094 5 c11 -34
25 -67 30 -72 6 -6 43 -11 84 -13 45 -2 76 -8 78 -15 2 -6 -23 -30 -56 -53
-69 -48 -71 -55 -41 -140 34 -96 29 -98 -58 -35 -34 25 -67 45 -73 45 -6 0
-37 -20 -69 -45 -89 -68 -97 -61 -55 51 14 36 25 68 25 70 0 2 -29 24 -65 49
-89 64 -86 74 22 77 l86 3 21 73 c26 90 43 92 71 5z m-4716 -440 c12 -38 25
-74 30 -81 6 -10 33 -14 87 -15 54 -2 79 -6 79 -14 0 -7 -28 -33 -62 -58 -35
-25 -63 -49 -63 -53 0 -4 9 -32 21 -62 11 -30 23 -62 26 -71 10 -35 -19 -29
-76 15 -33 25 -65 46 -73 46 -7 0 -40 -20 -73 -45 -35 -26 -63 -41 -68 -36 -6
6 -1 34 12 70 12 34 21 69 21 80 0 11 -23 35 -60 60 -84 59 -80 71 25 71 l84
0 22 73 c33 112 39 114 68 20z m1054 -18 l24 -70 81 -3 c102 -4 108 -20 27
-71 -30 -19 -57 -42 -60 -51 -3 -9 6 -48 19 -88 27 -79 21 -98 -22 -63 -15 12
-44 33 -65 48 -43 30 -47 29 -132 -33 -44 -32 -50 -34 -53 -18 -1 11 6 46 18
78 11 33 20 65 20 71 0 7 -27 30 -60 51 -86 56 -82 72 22 76 l82 3 23 65 c13
36 26 71 28 79 9 23 23 1 48 -74z m1047 4 l25 -74 83 -3 c102 -4 105 -15 22
-74 -35 -25 -60 -49 -60 -60 0 -10 9 -41 20 -70 21 -56 25 -88 12 -88 -5 0
-35 20 -68 45 -32 24 -65 45 -72 45 -8 0 -41 -21 -74 -46 -76 -59 -87 -50 -53
43 14 39 25 73 25 77 0 3 -28 27 -62 52 -35 25 -63 51 -63 58 0 7 30 13 82 16
45 3 83 7 86 10 2 3 12 32 22 65 9 33 19 66 21 73 9 29 30 2 54 -69z m1048 -6
l24 -73 78 0 c110 0 112 -9 18 -79 -32 -23 -58 -43 -58 -46 0 -2 12 -36 26
-76 16 -43 22 -75 16 -81 -5 -5 -33 9 -70 37 -34 25 -68 45 -75 45 -6 0 -39
-20 -72 -45 -87 -65 -89 -62 -50 47 14 38 23 74 20 78 -3 5 -33 28 -66 51 -33
23 -58 47 -56 53 2 6 38 12 85 14 l81 3 23 75 c28 94 43 94 76 -3z m1046 2
l22 -70 82 -5 c45 -3 82 -8 82 -12 0 -5 0 -11 0 -15 0 -5 -20 -20 -43 -35 -81
-51 -83 -56 -53 -140 14 -41 21 -77 16 -82 -5 -5 -34 12 -68 38 -33 25 -66 46
-74 46 -7 0 -40 -21 -72 -45 -33 -25 -63 -45 -68 -45 -14 0 -9 37 12 90 11 28
20 59 20 69 0 10 -24 34 -57 57 -32 21 -59 47 -61 56 -3 15 8 18 80 20 l83 3
24 73 c30 92 46 91 75 -3z m-2620 -440 c10 -33 23 -66 28 -72 7 -9 38 -13 89
-13 96 0 100 -10 23 -65 -73 -52 -79 -60 -67 -88 27 -56 45 -119 36 -128 -5
-5 -33 9 -71 36 -34 25 -66 45 -72 45 -6 0 -35 -18 -65 -40 -53 -39 -85 -50
-85 -30 0 5 9 33 20 62 31 82 28 92 -40 138 -84 57 -80 70 20 70 l81 0 18 43
c10 23 21 55 25 72 8 31 26 50 37 37 3 -4 13 -34 23 -67z m1032 48 c10 -48 38
-118 48 -125 6 -4 46 -8 89 -8 42 0 77 -4 77 -9 0 -6 -28 -31 -62 -57 -35 -26
-65 -49 -67 -51 -3 -2 5 -32 17 -67 38 -111 28 -123 -49 -61 -30 24 -62 44
-71 45 -9 0 -36 -15 -61 -34 -24 -19 -54 -39 -66 -45 -18 -10 -21 -9 -21 7 0
10 9 45 20 77 11 32 20 63 20 70 0 6 -30 33 -66 59 -38 27 -63 51 -58 56 5 5
45 10 88 12 l80 3 18 55 c36 108 52 126 64 73z m1064 -54 l25 -74 83 -3 c102
-3 105 -15 22 -73 -33 -23 -60 -47 -60 -54 0 -6 10 -42 21 -79 12 -39 18 -71
13 -76 -6 -6 -34 10 -69 35 -33 25 -66 45 -73 45 -7 0 -37 -18 -67 -40 -46
-34 -85 -51 -85 -36 0 1 11 34 25 72 14 38 25 72 25 76 0 4 -29 31 -65 59 -36
28 -65 55 -65 60 0 5 36 9 80 9 92 0 96 4 124 103 11 36 22 57 29 54 7 -2 23
-37 37 -78z m1045 3 c10 -32 22 -63 27 -69 7 -9 38 -13 89 -13 98 0 102 -12
22 -67 -35 -24 -59 -48 -61 -61 -2 -12 7 -49 19 -82 30 -83 18 -91 -59 -35
-34 25 -67 45 -74 45 -7 0 -40 -21 -72 -45 -37 -28 -63 -42 -69 -36 -6 6 -1
33 12 72 11 35 21 71 21 81 0 10 -25 34 -60 58 -84 57 -80 70 19 70 51 0 82 4
88 13 6 6 18 37 27 67 27 88 25 84 41 70 8 -6 21 -37 30 -68z m-5234 -4 l24
-73 80 -3 c44 -2 84 -7 89 -12 5 -5 -20 -29 -58 -56 -36 -26 -66 -53 -66 -60
0 -7 11 -44 25 -81 14 -40 21 -71 15 -77 -5 -5 -34 10 -71 38 -35 25 -68 46
-75 46 -7 0 -40 -21 -74 -46 -36 -28 -65 -43 -70 -38 -6 6 1 37 16 78 13 38
22 76 19 85 -3 9 -22 27 -42 40 -47 31 -83 62 -83 72 0 5 39 10 87 11 l87 3
23 70 c12 39 22 71 22 73 1 1 7 2 14 2 8 0 24 -31 38 -72z m1050 0 l24 -73 80
-3 c44 -2 84 -7 88 -11 5 -5 -21 -30 -57 -57 -36 -26 -66 -55 -66 -64 0 -9 9
-45 21 -80 12 -36 17 -66 12 -71 -5 -5 -34 10 -69 36 -32 24 -65 45 -71 45 -7
0 -41 -20 -75 -45 -78 -58 -89 -49 -54 42 14 38 26 73 26 78 -1 6 -30 31 -65
58 -36 26 -65 52 -65 57 0 6 34 10 78 10 42 0 82 4 87 8 6 4 17 27 24 52 34
115 49 119 82 18z m-531 -435 c11 -36 25 -72 31 -80 8 -9 37 -13 90 -13 98 0
101 -12 19 -66 -33 -21 -62 -45 -65 -52 -2 -7 7 -43 20 -81 14 -38 25 -71 25
-75 0 -17 -41 -1 -85 34 -27 22 -57 40 -67 40 -9 0 -38 -17 -65 -38 -55 -43
-83 -57 -83 -40 0 6 10 42 22 79 11 36 18 73 15 82 -3 8 -33 34 -67 57 -34 23
-58 46 -53 51 4 4 44 9 88 11 l80 3 23 65 c12 36 24 71 27 78 10 27 25 9 45
-55z m1045 10 c30 -99 34 -103 120 -103 40 0 76 -4 79 -9 4 -5 -21 -29 -54
-53 -33 -23 -62 -50 -65 -59 -3 -9 5 -47 19 -83 31 -86 18 -93 -60 -37 -32 23
-63 41 -69 41 -6 0 -37 -18 -68 -40 -84 -60 -91 -55 -57 45 11 32 20 63 20 70
0 6 -29 32 -65 58 -36 26 -65 51 -65 57 0 5 39 11 88 12 l87 3 24 78 c14 42
30 77 37 77 6 0 19 -26 29 -57z m1055 -24 l25 -74 80 -3 c44 -2 84 -7 88 -11
5 -5 -21 -29 -57 -55 -74 -53 -76 -59 -46 -138 35 -92 26 -98 -59 -38 -31 22
-63 40 -70 40 -7 0 -40 -20 -74 -45 -72 -55 -87 -49 -62 22 9 26 21 56 26 66
16 30 3 50 -61 92 -81 55 -78 65 19 65 51 0 82 4 88 13 8 10 36 87 49 135 8
30 30 1 54 -69z m1043 10 c11 -35 24 -70 30 -77 7 -9 34 -12 84 -11 40 1 76 0
78 -3 12 -12 -9 -35 -60 -68 -30 -19 -57 -40 -59 -47 -3 -6 6 -44 20 -84 13
-40 21 -76 16 -81 -4 -4 -35 12 -67 37 -33 25 -67 45 -75 45 -8 0 -42 -20 -75
-45 -35 -27 -63 -41 -68 -36 -6 6 1 40 16 84 l25 75 -21 20 c-12 10 -43 33
-70 51 -26 18 -45 36 -42 42 4 5 41 9 84 9 88 0 91 2 110 70 32 112 46 115 74
19z m1031 59 c32 -110 41 -134 50 -140 6 -4 46 -8 89 -8 95 0 98 -11 17 -65
-33 -22 -62 -47 -65 -55 -3 -9 6 -47 20 -85 16 -42 22 -72 16 -78 -6 -6 -32 8
-69 37 -33 25 -66 46 -73 46 -7 0 -39 -18 -70 -40 -86 -60 -94 -54 -59 40 11
30 20 62 20 72 0 10 -29 37 -66 64 -36 26 -62 50 -57 55 4 4 44 9 88 11 l80 3
20 60 c30 88 33 95 45 95 6 0 12 -6 14 -12z m-4694 -519 l26 -74 82 -5 c45 -3
83 -9 84 -15 1 -5 -26 -29 -60 -53 -34 -24 -62 -49 -62 -56 0 -7 9 -39 20 -71
34 -99 25 -106 -54 -47 -28 21 -56 41 -62 45 -7 4 -39 -13 -73 -38 -34 -25
-66 -45 -71 -45 -15 0 -12 26 12 97 l23 65 -21 17 c-12 9 -42 31 -68 49 -26
18 -44 37 -41 42 3 6 39 10 78 10 40 0 77 4 83 8 7 4 22 40 34 80 13 42 27 71
34 69 6 -2 22 -37 36 -78z m1050 0 l25 -74 83 -3 c58 -2 82 -7 82 -15 0 -7
-27 -32 -60 -55 -35 -25 -60 -50 -60 -60 0 -10 10 -46 21 -81 12 -35 18 -66
13 -71 -5 -5 -37 12 -72 40 -72 56 -70 57 -164 -16 -60 -45 -68 -32 -33 56 14
35 25 69 25 75 0 6 -29 32 -65 58 -36 26 -65 51 -65 57 0 6 33 10 79 10 51 0
82 4 88 13 6 6 18 37 27 67 10 30 19 61 22 68 9 29 30 2 54 -69z m1042 11 c11
-36 25 -71 30 -77 7 -9 38 -13 89 -13 46 0 79 -4 79 -10 0 -6 -27 -29 -60 -53
-32 -23 -61 -47 -64 -53 -2 -6 7 -44 21 -84 14 -39 21 -76 16 -80 -4 -5 -35
11 -67 36 -33 24 -68 44 -78 44 -9 0 -41 -18 -70 -40 -51 -38 -78 -49 -78 -32
0 5 9 35 20 67 11 32 20 66 20 76 0 11 -24 35 -60 61 -82 58 -79 68 20 68 l81
0 19 46 c11 25 20 52 20 60 0 23 20 56 32 52 6 -2 19 -33 30 -68z m1043 13
c28 -98 34 -103 120 -103 40 0 77 -4 80 -10 3 -5 -15 -24 -41 -42 -26 -18 -56
-40 -68 -50 l-21 -16 27 -77 c32 -90 21 -105 -39 -58 -88 69 -84 68 -139 25
-27 -21 -59 -44 -72 -51 -19 -10 -22 -9 -22 7 0 10 9 45 20 77 11 32 20 64 20
71 0 7 -27 32 -60 55 -33 23 -60 48 -60 55 0 10 22 14 82 16 l82 3 18 55 c40
121 49 126 73 43z m1055 -21 l25 -77 83 -3 c60 -2 82 -6 82 -16 0 -7 -27 -32
-60 -55 -33 -23 -60 -49 -60 -57 0 -7 9 -41 21 -74 32 -94 25 -99 -59 -40
l-72 52 -64 -50 c-82 -65 -93 -56 -57 45 l26 75 -21 16 c-12 10 -42 32 -68 50
-26 18 -44 37 -41 42 3 6 39 10 79 10 49 0 77 4 85 13 6 8 20 44 31 80 12 37
26 67 33 67 7 0 23 -35 37 -78z m1026 61 c7 -10 14 -26 14 -35 0 -9 9 -37 20
-62 l19 -46 81 0 c99 0 103 -11 20 -66 -39 -25 -60 -46 -60 -58 0 -11 10 -50
22 -88 12 -37 19 -70 15 -74 -3 -4 -38 17 -76 45 l-70 52 -68 -50 c-40 -29
-72 -46 -77 -41 -5 5 2 39 17 82 l27 73 -38 33 c-20 18 -49 40 -64 49 -50 31
-36 43 51 43 51 0 82 4 88 13 6 6 18 37 27 67 10 30 19 61 21 68 6 17 15 15
31 -5z m-4695 -502 c25 -89 28 -91 120 -91 44 0 79 -4 79 -10 0 -5 -26 -28
-57 -51 -32 -23 -62 -45 -66 -49 -5 -4 3 -42 17 -84 14 -42 26 -79 26 -81 0
-15 -37 -1 -73 29 -78 62 -87 63 -150 5 -27 -24 -66 -43 -74 -35 -4 4 3 35 15
69 12 34 22 70 22 80 0 9 -27 37 -62 63 -90 66 -90 68 14 64 87 -3 95 2 118
76 11 36 23 70 26 75 13 21 28 0 45 -60z m1048 0 c12 -38 28 -75 36 -81 9 -8
41 -11 86 -9 48 3 74 0 76 -7 2 -7 -26 -33 -62 -60 -36 -26 -65 -54 -65 -60 0
-7 11 -43 24 -79 31 -84 18 -92 -57 -36 -29 23 -62 41 -72 41 -10 0 -42 -18
-71 -40 -29 -22 -58 -40 -64 -40 -16 0 -12 34 10 85 30 70 27 79 -45 131 -36
25 -64 51 -62 58 3 7 28 10 76 7 58 -3 76 0 91 14 11 10 20 22 20 28 0 29 33
117 44 117 7 0 23 -31 35 -69z m1051 -12 l25 -74 80 0 c102 0 107 -14 25 -72
-34 -25 -60 -50 -60 -60 0 -10 9 -42 20 -71 37 -96 24 -104 -64 -37 -66 50
-64 50 -145 -12 -40 -30 -71 -42 -71 -27 0 3 12 40 26 81 l26 76 -23 19 c-13
10 -43 31 -66 46 -64 41 -57 52 36 52 51 0 82 4 88 13 6 6 18 37 27 67 10 30
19 61 22 68 9 29 30 2 54 -69z m1043 11 c26 -89 29 -92 106 -90 114 4 117 -2
31 -63 -32 -23 -61 -47 -64 -54 -3 -6 6 -42 20 -79 13 -37 24 -71 24 -75 0
-19 -30 -7 -77 29 -71 56 -74 56 -138 6 -54 -42 -85 -55 -85 -36 0 5 9 35 20
67 30 86 27 94 -41 143 -33 24 -59 48 -56 55 2 8 24 11 69 9 36 -2 74 1 85 6
12 7 25 35 37 82 24 91 42 91 69 0z m1049 0 c28 -93 29 -93 120 -88 98 6 100
-4 13 -68 -36 -26 -65 -52 -65 -57 0 -5 11 -40 25 -78 16 -46 21 -70 14 -75
-6 -3 -36 11 -68 33 -31 22 -61 42 -68 46 -6 4 -38 -13 -71 -38 -88 -66 -99
-59 -62 37 11 29 20 61 20 70 0 10 -27 38 -62 63 -35 25 -63 51 -63 58 0 9 19
11 67 9 96 -5 105 0 124 66 33 113 47 117 76 22z m-4710 -457 l26 -78 81 -3
c55 -2 81 -7 81 -15 0 -7 -27 -32 -60 -55 -33 -24 -60 -49 -60 -55 0 -6 10
-41 22 -79 12 -37 19 -71 15 -74 -4 -4 -32 10 -63 32 -30 21 -61 43 -68 48 -8
6 -33 -7 -75 -38 -74 -54 -93 -59 -81 -18 5 15 16 52 25 81 l17 55 -34 28
c-18 16 -45 36 -60 45 -49 30 -35 42 54 45 l82 3 24 78 c13 42 29 77 36 77 6
0 23 -35 38 -77z m1048 -4 l25 -74 83 -3 c56 -2 82 -7 82 -15 0 -7 -25 -28
-55 -47 -30 -19 -57 -43 -61 -54 -3 -10 4 -49 17 -87 23 -68 21 -92 -6 -74 -8
6 -39 27 -70 49 l-55 38 -62 -46 c-56 -42 -88 -56 -88 -40 0 4 11 38 25 76 14
38 25 73 25 78 0 5 -29 30 -65 55 -36 26 -63 51 -59 56 3 5 38 9 78 9 47 0 77
5 84 13 5 6 18 39 27 72 10 33 20 64 22 68 12 20 30 -5 53 -74z m1044 10 c12
-35 25 -70 29 -76 5 -9 35 -13 88 -13 97 0 100 -10 18 -64 -33 -21 -62 -42
-64 -46 -3 -4 7 -40 20 -81 14 -40 25 -76 25 -81 0 -18 -30 -5 -84 37 -32 25
-62 45 -65 45 -4 0 -34 -20 -67 -45 -88 -66 -99 -61 -64 33 31 81 28 91 -40
137 -82 55 -78 65 20 65 77 0 80 1 94 28 7 15 17 43 21 62 10 47 24 72 38 67
6 -2 20 -32 31 -68z m1046 2 c12 -38 27 -74 34 -80 6 -5 45 -11 86 -13 42 -2
75 -7 74 -13 -1 -5 -24 -26 -53 -46 -29 -20 -57 -41 -63 -47 -9 -9 6 -74 37
-154 11 -29 -17 -22 -66 15 -83 64 -82 64 -148 12 -89 -68 -94 -63 -59 46 25
78 24 81 -53 131 -71 46 -65 57 33 60 l81 3 22 65 c36 114 45 116 75 21z
m1050 -8 l25 -78 83 -3 c56 -2 82 -7 82 -15 0 -7 -25 -29 -56 -51 -30 -21 -58
-45 -61 -52 -3 -8 5 -46 18 -84 22 -69 21 -93 -6 -75 -7 6 -39 28 -69 49 l-56
39 -60 -46 c-63 -49 -98 -61 -85 -29 31 80 46 145 37 154 -6 6 -34 27 -63 47
-29 20 -52 41 -53 46 -1 6 32 11 74 13 41 2 80 7 86 13 7 6 22 41 33 80 12 38
27 69 34 69 7 0 24 -35 37 -77z m1045 6 c12 -36 25 -71 29 -77 4 -8 37 -12 87
-12 97 0 100 -10 19 -65 -68 -45 -70 -52 -40 -140 11 -32 20 -62 20 -67 0 -18
-30 -6 -84 37 -32 25 -62 45 -66 45 -4 0 -37 -23 -74 -50 -81 -62 -89 -53 -51
51 l26 73 -23 18 c-13 10 -42 31 -65 46 -64 41 -57 52 36 52 88 0 91 2 110 69
32 113 44 116 76 20z m-4713 -449 c11 -36 25 -71 30 -77 7 -9 38 -13 89 -13
44 0 79 -4 79 -10 0 -5 -27 -28 -61 -50 -33 -23 -62 -47 -65 -53 -2 -7 7 -43
21 -81 37 -101 26 -108 -61 -41 -31 25 -62 45 -67 45 -4 0 -35 -20 -67 -45
-86 -66 -97 -59 -60 35 26 67 26 96 -2 111 -13 7 -25 15 -28 18 -3 4 -20 17
-37 30 -18 12 -33 26 -33 31 0 5 37 10 82 12 l83 3 25 78 c16 52 29 77 38 75
8 -2 23 -32 34 -68z m1044 13 c28 -98 33 -103 119 -103 91 0 97 -13 26 -58
-75 -49 -76 -52 -52 -124 22 -66 26 -98 12 -98 -5 0 -35 20 -67 45 -31 25 -62
45 -67 45 -5 0 -36 -21 -69 -46 -82 -62 -94 -55 -62 36 14 39 23 77 20 85 -3
8 -30 31 -61 51 -77 51 -73 64 20 64 86 0 92 5 120 103 10 34 22 57 30 57 9 0
21 -23 31 -57z m1042 11 c8 -21 21 -56 30 -76 l15 -38 79 0 c94 0 100 -12 29
-58 -77 -50 -78 -53 -53 -131 35 -109 33 -111 -56 -46 -34 25 -65 45 -70 45
-4 0 -34 -20 -67 -45 -58 -43 -85 -55 -85 -36 0 4 11 39 25 77 14 38 23 74 21
81 -3 6 -32 30 -65 53 -34 22 -61 45 -61 50 0 6 35 10 79 10 51 0 82 4 88 13
6 6 18 37 27 67 10 30 19 61 22 68 7 24 28 7 42 -34z m1056 -25 c12 -35 25
-70 29 -76 5 -9 35 -13 88 -13 43 0 79 -4 79 -9 0 -6 -27 -28 -59 -51 -33 -23
-62 -48 -64 -55 -3 -6 6 -44 20 -84 14 -39 23 -74 19 -78 -8 -8 -45 12 -87 48
-53 45 -63 45 -128 -5 -89 -69 -96 -63 -57 46 28 76 28 75 -51 132 -29 21 -53
42 -53 47 0 5 35 9 79 9 89 0 92 2 111 75 28 106 44 109 74 14z m1048 1 c27
-88 31 -92 102 -90 120 3 122 -2 35 -60 -33 -23 -62 -47 -65 -54 -3 -7 6 -43
21 -81 14 -37 25 -71 25 -76 0 -20 -31 -7 -86 36 -31 25 -61 45 -66 45 -5 0
-36 -20 -70 -45 -34 -25 -66 -45 -70 -45 -13 0 -9 23 12 85 11 32 20 65 20 74
0 9 -27 33 -60 55 -83 53 -80 66 19 66 l80 0 20 55 c12 31 21 61 21 68 0 17
21 38 33 34 5 -1 18 -32 29 -67z m-1569 -456 l22 -69 80 -3 c115 -4 116 -9 23
-81 -32 -24 -58 -47 -58 -52 0 -4 10 -37 23 -72 31 -86 24 -108 -24 -66 -30
27 -96 69 -107 69 -5 0 -35 -20 -66 -45 -32 -25 -62 -45 -67 -45 -14 0 -11 25
12 90 11 34 18 67 15 75 -4 12 -67 63 -103 83 -6 4 -13 14 -15 22 -2 12 13 16
81 20 l83 5 15 40 c32 86 47 115 55 107 5 -5 19 -40 31 -78z m1047 -1 l23 -72
83 -3 c46 -2 85 -7 85 -13 1 -5 -25 -31 -57 -56 -53 -42 -59 -50 -56 -80 1
-19 9 -51 17 -72 32 -80 17 -85 -65 -22 -32 25 -62 45 -67 45 -9 0 -87 -54
-111 -77 -38 -36 -44 -2 -15 75 12 34 23 66 23 71 0 5 -28 30 -62 56 -35 26
-63 52 -63 59 0 7 29 12 82 14 92 3 91 2 113 87 14 55 29 80 40 68 4 -4 18
-40 30 -80z m1049 -3 l21 -69 82 -3 c51 -2 83 -7 85 -15 2 -6 -23 -31 -56 -54
-70 -49 -71 -55 -39 -146 12 -35 19 -66 15 -70 -4 -3 -32 11 -63 33 -30 21
-61 43 -69 48 -9 7 -33 -4 -81 -37 -40 -28 -72 -43 -77 -38 -5 5 2 39 17 80
14 40 26 74 26 75 0 2 -32 27 -71 56 -41 29 -68 55 -63 60 5 5 47 10 93 12
l83 3 20 65 c29 99 26 94 42 81 8 -7 24 -43 35 -81z m-5238 8 l24 -73 85 -5
c69 -4 84 -8 82 -20 -2 -8 -9 -18 -15 -22 -36 -20 -99 -71 -103 -83 -3 -8 4
-39 15 -70 22 -57 27 -95 13 -95 -4 0 -34 20 -67 45 -33 25 -65 45 -71 45 -6
0 -37 -20 -70 -45 -32 -24 -62 -45 -66 -45 -13 0 -9 35 12 95 11 32 20 62 20
67 0 4 -28 29 -62 54 -35 25 -63 51 -63 58 0 7 31 13 85 16 l85 5 19 60 c11
33 20 66 22 73 2 6 10 12 17 12 9 0 24 -29 38 -72z m1048 -6 l23 -72 77 0
c112 0 117 -9 38 -66 -75 -55 -77 -61 -47 -144 35 -96 28 -99 -59 -35 -34 25
-65 45 -71 45 -5 0 -36 -20 -69 -45 -58 -44 -81 -54 -81 -36 0 6 11 41 25 79
14 38 25 72 25 75 0 3 -29 27 -65 53 -36 25 -64 51 -62 58 2 6 38 13 87 16
l84 5 18 60 c10 33 20 66 23 73 10 28 31 3 54 -66z m1047 2 l22 -69 85 -5 c47
-3 88 -8 92 -12 4 -3 -25 -30 -65 -59 -49 -36 -70 -57 -67 -68 3 -9 15 -44 28
-78 23 -62 21 -86 -6 -68 -7 6 -39 28 -70 50 -40 28 -60 36 -70 30 -8 -6 -39
-28 -69 -49 -31 -22 -59 -36 -63 -32 -4 4 2 36 15 71 12 35 22 72 22 82 0 12
-23 35 -60 61 -85 60 -80 72 25 72 l84 0 21 66 c11 36 23 70 26 75 13 22 30
-1 50 -67z"/>
<path d="M0 2765 l0 -315 7230 0 7230 0 0 315 0 315 -7230 0 -7230 0 0 -315z"/>
<path d="M0 1495 l0 -315 7230 0 7230 0 0 315 0 315 -7230 0 -7230 0 0 -315z"/>
<path d="M0 300 l0 -230 7214 0 c3968 0 7221 3 7230 6 14 5 16 35 16 230 l0
224 -7230 0 -7230 0 0 -230z"/>
</g>
</svg>
